<svg width="32" height="32" viewBox="0 0 32 32" fill="none" xmlns="http://www.w3.org/2000/svg">
<path fill-rule="evenodd" clip-rule="evenodd" d="M17.8206 13.5431C18.2394 13.6637 18.6387 13.8294 19.0187 14.0406L20.3719 13.01C20.5987 12.8369 20.915 12.8625 21.1112 13.0594L22.2769 14.2231C22.4881 14.4344 22.4969 14.7706 22.3031 14.9925L21.295 16.3169C21.5062 16.6975 21.6719 17.0962 21.7925 17.5156L23.4769 17.7437C23.7681 17.7831 23.9769 18.0381 23.9637 18.3262V19.9481C23.9637 20.2331 23.7519 20.4681 23.4769 20.505L21.7925 20.7337C21.6719 21.1525 21.5062 21.5519 21.295 21.9325L22.325 23.2856C22.4981 23.5125 22.4725 23.8287 22.2756 24.025L21.1119 25.1906C20.9006 25.4019 20.5644 25.4106 20.3431 25.2169L19.0187 24.2087C18.6381 24.42 18.2387 24.5856 17.82 24.7062L17.5919 26.3906C17.5525 26.6819 17.2975 26.8906 17.0094 26.8775H15.3875C15.1025 26.8775 14.8675 26.6656 14.8306 26.3906L14.6019 24.7062C14.1831 24.5856 13.7831 24.42 13.4031 24.2087L12.05 25.2394C11.8231 25.4125 11.5069 25.3869 11.3106 25.19L10.145 24.0262C9.93373 23.815 9.92498 23.4787 10.1187 23.2575L11.1269 21.9331C10.9156 21.5525 10.75 21.1537 10.6294 20.7344L8.94498 20.5062C8.65373 20.4669 8.44498 20.2119 8.45811 19.9237V18.3019C8.45811 18.0169 8.66998 17.7819 8.94498 17.745L10.6294 17.5162C10.75 17.0975 10.9156 16.6981 11.1269 16.3175L10.0962 14.9644C9.9231 14.7375 9.94873 14.4212 10.1456 14.225L11.3094 13.0594C11.5206 12.8481 11.8569 12.8394 12.0787 13.0331L13.4031 14.0412C13.7837 13.83 14.1825 13.6644 14.6019 13.5437L14.83 11.8594C14.8681 11.5769 15.11 11.3712 15.3875 11.3719L17.035 11.37C17.335 11.37 17.5806 11.6044 17.5981 11.9006L17.8206 13.5437V13.5431Z" fill="#138CF0"/>
<path fill-rule="evenodd" clip-rule="evenodd" d="M17.8206 13.5431C18.2394 13.6637 18.6388 13.8294 19.0188 14.0406L20.3894 12.9975L21.6288 14.2237C21.84 14.435 21.8488 14.7712 21.655 14.9925L20.6469 16.3169C20.8581 16.6975 21.0238 17.0962 21.1444 17.5156L22.8288 17.7437C23.12 17.7831 23.3288 18.0381 23.3156 18.3262V19.9481C23.3156 20.2331 23.1038 20.4681 22.8288 20.505L21.1444 20.7337C21.0238 21.1525 20.8581 21.5519 20.6469 21.9325L21.6769 23.2856C21.85 23.5125 21.8244 23.8287 21.6275 24.025L20.3894 25.2531L19.0188 24.2087C18.5431 24.4706 18.3394 24.5319 17.82 24.7062C17.79 24.9294 17.6031 26.4119 17.5631 26.5081C17.4975 26.665 17.3956 26.7669 17.2406 26.8387L17.0094 26.8769L15.3344 26.8744L15.2213 26.8519C15.015 26.7875 14.8625 26.6037 14.8306 26.39L14.6019 24.7056C14.0994 24.5419 13.8569 24.4581 13.4031 24.2081L12.05 25.2387C11.8181 25.3962 11.52 25.3969 11.3106 25.1894L10.145 24.0256C9.93376 23.8144 9.925 23.4781 10.1188 23.2569L11.1269 21.9325L10.9 21.4781C10.9 21.4781 10.6294 20.8144 10.6294 20.7344C10.4881 20.715 8.93125 20.5044 8.93125 20.5044C8.64625 20.4587 8.46188 20.2231 8.45813 19.9237V18.2881C8.46188 18.0075 8.67813 17.7819 8.945 17.7444L10.6294 17.5156C10.8031 16.9994 10.8838 16.7569 11.1269 16.3169L10.0963 14.9637C9.92313 14.7369 9.94875 14.4206 10.1456 14.2244L11.3094 13.0587C11.5388 12.8506 11.8344 12.8412 12.0788 13.0325L13.4031 14.0406C13.94 13.7706 14.0325 13.7194 14.6019 13.5431L14.83 11.8587C14.8575 11.665 14.985 11.495 15.1656 11.4169C15.1731 11.4137 15.1813 11.4106 15.1888 11.4075C15.2006 11.4031 15.2125 11.3987 15.2244 11.3956C15.2363 11.3919 15.2488 11.3887 15.2606 11.3856C15.265 11.3844 15.2688 11.3837 15.2731 11.3831L17.035 11.37C17.34 11.3706 17.5613 11.5919 17.5981 11.9006L17.8206 13.5437V13.5431ZM8.60438 20.3269L8.5875 20.3075C8.59313 20.3137 8.59875 20.3206 8.60438 20.3269Z" fill="#36A5FF"/>
<path d="M16.8394 22.0139C18.4392 21.6721 19.4589 20.098 19.117 18.4982C18.7752 16.8984 17.2011 15.8786 15.6013 16.2205C14.0015 16.5624 12.9817 18.1364 13.3236 19.7363C13.6655 21.3361 15.2396 22.3558 16.8394 22.0139Z" fill="#FFD675"/>
<path fill-rule="evenodd" clip-rule="evenodd" d="M15.9463 22.0744C14.435 21.94 13.25 20.6706 13.25 19.1244C13.25 17.5781 14.44 16.3038 15.9556 16.1738C17.4669 16.3081 18.6519 17.5775 18.6519 19.1238C18.6519 20.67 17.4619 21.9444 15.9463 22.0744Z" fill="#FFEE93"/>
<path fill-rule="evenodd" clip-rule="evenodd" d="M8.00557 15.0975C7.55995 16.6293 7.39682 16.7718 7.2737 18.3425C7.06557 20.9975 7.93432 23.5487 9.8637 25.4725C13.3749 28.9731 19.0543 28.9787 22.5606 25.4725C24.1849 23.8481 25.1899 21.6031 25.1899 19.1243C25.1899 18.9175 25.3581 18.7493 25.5649 18.7493H27.9006C28.1074 18.7493 28.2756 18.9175 28.2756 19.1243C28.2756 25.7868 22.8743 31.1881 16.2118 31.1881C9.54932 31.1881 4.14807 25.7868 4.14807 19.1243C4.14807 17.7412 4.38432 16.4018 4.82182 15.15C4.8387 15.1325 4.8562 15.115 4.87307 15.0981H8.00557V15.0975Z" fill="#7DA31D"/>
<path fill-rule="evenodd" clip-rule="evenodd" d="M15.9344 28.095C18.3237 28.1693 20.7356 27.2962 22.5594 25.4725C24.1837 23.8481 25.1887 21.6031 25.1887 19.1243C25.1887 18.9175 25.3568 18.7493 25.5637 18.7493H27.3369C27.5437 18.7493 27.7119 18.9175 27.7119 19.1243C27.7119 25.6931 22.4618 31.035 15.9293 31.1843C9.39685 31.035 4.14685 25.6925 4.14685 19.1243C4.14685 17.7412 4.3831 16.4018 4.8206 15.15C4.83748 15.1325 4.85498 15.115 4.87185 15.0981H7.44185C6.99623 16.63 6.8331 16.7725 6.70998 18.3431C6.50185 20.9981 7.3706 23.5493 9.29998 25.4731C11.1281 27.2956 13.5431 28.17 15.9337 28.0956L15.9344 28.095Z" fill="#ABD641"/>
<path fill-rule="evenodd" clip-rule="evenodd" d="M10.8187 8.21374H23.5712V7.24249C23.5712 7.03562 23.7394 6.86749 23.9462 6.86749C24.0237 6.86749 24.0962 6.89124 24.1556 6.93124L28.0931 9.30374C28.27 9.41062 28.3275 9.64062 28.2206 9.81812C28.1868 9.87437 28.1406 9.91812 28.0881 9.94874L24.14 12.3281C23.9631 12.435 23.7325 12.3781 23.6256 12.2006C23.5894 12.14 23.5718 12.0731 23.5718 12.0075V11.0362H10.8187C10.6119 11.0362 10.4437 10.8681 10.4437 10.6612V8.58937C10.4437 8.38249 10.6119 8.21437 10.8187 8.21437V8.21374Z" fill="#7DA31D"/>
<path fill-rule="evenodd" clip-rule="evenodd" d="M28.2249 9.81062L28.2206 9.81812C28.1868 9.87437 28.1406 9.91812 28.0881 9.94874L24.1399 12.3281C23.9631 12.435 23.7324 12.3781 23.6256 12.2006C23.5943 12.1487 23.5774 12.0925 23.5731 12.0362V11.4106H23.5718V11.0356H10.8187C10.6231 11.0356 10.4624 10.8856 10.4449 10.6944V8.96374C10.4449 8.75687 10.6131 8.58874 10.8199 8.58874H23.5724V7.61749C23.5724 7.41062 23.7406 7.24249 23.9474 7.24249C24.0249 7.24249 24.0974 7.26624 24.1568 7.30624L28.0943 9.67874C28.1499 9.71249 28.1937 9.75812 28.2243 9.81062H28.2249Z" fill="#ABD641"/>
<path fill-rule="evenodd" clip-rule="evenodd" d="M6.45312 3.44873H19.2056V2.47748C19.2056 2.2706 19.3738 2.10248 19.5806 2.10248C19.6581 2.10248 19.7306 2.12623 19.79 2.16623L23.7275 4.53873C23.9044 4.6456 23.9619 4.8756 23.855 5.0531C23.8212 5.10935 23.775 5.1531 23.7225 5.18373L19.7744 7.5631C19.5975 7.66998 19.3669 7.6131 19.26 7.4356C19.2238 7.37498 19.2062 7.3081 19.2062 7.24248V6.27123H6.45312C6.24625 6.27123 6.07812 6.1031 6.07812 5.89623V3.82373C6.07812 3.61685 6.24625 3.44873 6.45312 3.44873Z" fill="#7DA31D"/>
<path fill-rule="evenodd" clip-rule="evenodd" d="M19.2056 3.44874V2.94061C19.2056 2.73374 19.3738 2.56561 19.5806 2.56561C19.6581 2.56561 19.7306 2.58936 19.79 2.62936L23.7275 5.00186C23.7675 5.02624 23.8013 5.05624 23.8288 5.09061C23.7988 5.12874 23.7625 5.15936 23.7225 5.18311L19.7744 7.56249C19.5975 7.66936 19.3669 7.61249 19.26 7.43499C19.2238 7.37436 19.2063 7.30749 19.2063 7.24186V6.27061H6.45313C6.24625 6.27061 6.07812 6.10249 6.07812 5.89561V4.28686C6.07812 4.07999 6.24625 3.91186 6.45313 3.91186H19.2056V3.44874Z" fill="#ABD641"/>
<path fill-rule="evenodd" clip-rule="evenodd" d="M29.7388 15.4425L29.0681 16.6037C29.0644 16.6106 29.0606 16.6169 29.0562 16.6231L28.3975 17.7637C28.3287 17.8837 28.2031 17.9512 28.0737 17.9512V17.9525H25.3919C25.2406 17.9525 25.11 17.8625 25.0506 17.7331L24.3981 16.6031L23.7275 15.4425C23.6538 15.315 23.6637 15.1625 23.74 15.0475L24.3981 13.9075L25.0688 12.7462C25.1375 12.6262 25.2631 12.5587 25.3925 12.5587V12.5575H28.0744C28.2256 12.5575 28.3562 12.6475 28.4156 12.7769L29.0688 13.9081L29.7394 15.0694C29.8081 15.1894 29.8031 15.3312 29.7394 15.4425H29.7388Z" fill="#353E99"/>
<path fill-rule="evenodd" clip-rule="evenodd" d="M27.7556 17.9525H25.3925C25.2412 17.9525 25.1106 17.8625 25.0512 17.7331L24.3987 16.6031L23.7281 15.4425C23.6544 15.315 23.6644 15.1625 23.7406 15.0475L24.3987 13.9075L25.0694 12.7462C25.1381 12.6262 25.2637 12.5587 25.3931 12.5587V12.5575H27.7562C27.9075 12.5575 28.0381 12.6475 28.0975 12.7769L28.7506 13.9081L29.4212 15.0694C29.49 15.1894 29.485 15.3312 29.4212 15.4425C29.3575 15.5537 28.7506 16.6044 28.7506 16.6044C28.7469 16.6112 28.7431 16.6175 28.7387 16.6237L28.08 17.7644C28.0112 17.8844 27.8856 17.9519 27.7562 17.9519V17.9531L27.7556 17.9525Z" fill="#5D64B4"/>
<path fill-rule="evenodd" clip-rule="evenodd" d="M26.7331 13.7119C27.1594 13.7119 27.545 13.8844 27.8244 14.1637C28.1038 14.4431 28.2763 14.8287 28.2763 15.255C28.2763 15.6812 28.1038 16.0669 27.8244 16.3462C27.545 16.6256 27.1594 16.7981 26.7331 16.7981C26.3069 16.7981 25.9213 16.6256 25.6419 16.3462C25.3625 16.0669 25.19 15.6812 25.19 15.255C25.19 14.8287 25.3625 14.4431 25.6419 14.1637C25.9213 13.8844 26.3069 13.7119 26.7331 13.7119Z" fill="#EDDBA5"/>
<path fill-rule="evenodd" clip-rule="evenodd" d="M26.6531 16.7962C26.2588 16.7762 25.9038 16.6081 25.6419 16.3462C25.3625 16.0669 25.19 15.6812 25.19 15.255C25.19 14.8287 25.3625 14.4431 25.6419 14.1637C25.9038 13.9019 26.2588 13.7337 26.6531 13.7137C27.0475 13.7337 27.4025 13.9019 27.6644 14.1637C27.9438 14.4431 28.1163 14.8287 28.1163 15.255C28.1163 15.6812 27.9438 16.0669 27.6644 16.3462C27.4025 16.6081 27.0475 16.7762 26.6531 16.7962Z" fill="#FFF0C4"/>
<path d="M9.17497 18.1694H7.9131C7.29868 18.1694 6.8006 18.6675 6.8006 19.2819V19.9187C6.8006 20.5332 7.29868 21.0312 7.9131 21.0312H9.17497C9.78939 21.0312 10.2875 20.5332 10.2875 19.9187V19.2819C10.2875 18.6675 9.78939 18.1694 9.17497 18.1694Z" fill="#27274F"/>
<path d="M8.81747 18.1694H7.9131C7.29868 18.1694 6.8006 18.6675 6.8006 19.2819V19.9187C6.8006 20.5332 7.29868 21.0312 7.9131 21.0312H8.81747C9.43189 21.0312 9.92997 20.5332 9.92997 19.9187V19.2819C9.92997 18.6675 9.43189 18.1694 8.81747 18.1694Z" fill="#545475"/>
<path fill-rule="evenodd" clip-rule="evenodd" d="M8.54248 0.8125C12.0394 0.8125 14.8737 3.46375 14.8737 6.73438C14.8737 10.005 12.1869 10.2338 12.1869 17.0063C12.1869 17.4163 11.8281 17.7519 11.39 17.7519H5.6956C5.25748 17.7519 4.89873 17.4163 4.89873 17.0063C4.89873 10.2331 2.21185 10.0312 2.21185 6.73438C2.21185 3.4375 5.04623 0.8125 8.54248 0.8125Z" fill="#F9BF2C"/>
<path fill-rule="evenodd" clip-rule="evenodd" d="M10.6775 17.7519H5.6956C5.25748 17.7519 4.89873 17.4163 4.89873 17.0063C4.89873 10.2332 2.21185 10.0313 2.21185 6.7344C2.21185 3.43752 4.8556 0.995024 8.18623 0.821899C11.5169 0.995024 14.1612 3.57565 14.1612 6.73377C14.1612 9.8919 11.4744 10.2331 11.4744 17.0056C11.4744 17.4156 11.1156 17.7513 10.6775 17.7513V17.7519Z" fill="#FBD734"/>
<path d="M10.4581 16.6213H6.63002C6.0156 16.6213 5.51752 17.1194 5.51752 17.7338V18.3707C5.51752 18.9851 6.0156 19.4832 6.63002 19.4832H10.4581C11.0726 19.4832 11.5706 18.9851 11.5706 18.3707V17.7338C11.5706 17.1194 11.0726 16.6213 10.4581 16.6213Z" fill="#545475"/>
<path d="M9.60439 16.6213H6.63002C6.0156 16.6213 5.51752 17.1194 5.51752 17.7338V18.3707C5.51752 18.9851 6.0156 19.4832 6.63002 19.4832H9.60439C10.2188 19.4832 10.7169 18.9851 10.7169 18.3707V17.7338C10.7169 17.1194 10.2188 16.6213 9.60439 16.6213Z" fill="#9191AD"/>
<path fill-rule="evenodd" clip-rule="evenodd" d="M4.82562 15.1944H12.26C12.2131 15.7413 12.1869 16.3419 12.1869 17.0063C12.1869 17.4163 11.8281 17.7519 11.39 17.7519H5.69562C5.2575 17.7519 4.89875 17.4163 4.89875 17.0063C4.89875 16.3419 4.8725 15.7413 4.82625 15.1944H4.82562Z" fill="#9191AD"/>
<path fill-rule="evenodd" clip-rule="evenodd" d="M4.82562 15.1944H11.5475C11.5006 15.7413 11.475 16.3419 11.475 17.0063C11.475 17.4163 11.1162 17.7519 10.6781 17.7519H5.69562C5.2575 17.7519 4.89875 17.4163 4.89875 17.0063C4.89875 16.3419 4.8725 15.7413 4.82625 15.1944H4.82562Z" fill="#DBDBDB"/>
<path fill-rule="evenodd" clip-rule="evenodd" d="M11.4338 8.16001C11.4863 7.96001 11.6913 7.84063 11.8906 7.89313C12.0906 7.94563 12.21 8.15063 12.1575 8.35001C11.7281 9.97438 10.2469 11.1294 8.5425 11.1294C6.47688 11.1294 4.80188 9.45438 4.80188 7.38876C4.80188 5.32313 6.47688 3.64813 8.5425 3.64813C9.96563 3.64813 11.2525 4.45626 11.8838 5.70751C11.9769 5.89188 11.9025 6.11688 11.7181 6.21001C11.5338 6.30313 11.3088 6.22876 11.2156 6.04438C10.2988 4.22563 7.86938 3.83251 6.4275 5.27376C5.25938 6.44188 5.25938 8.33501 6.4275 9.50313C8.06063 11.1363 10.8456 10.3713 11.4331 8.15938L11.4338 8.16001Z" fill="#DBDBDB"/>
<path fill-rule="evenodd" clip-rule="evenodd" d="M11.4338 8.16003C11.4613 8.0544 11.5319 7.97128 11.6213 7.9244C11.8006 7.99003 11.9031 8.18253 11.8538 8.37065C11.4588 9.86628 10.1713 10.9638 8.63877 11.1282C8.60689 11.1288 8.57439 11.1294 8.54189 11.1294C6.47627 11.1294 4.80127 9.4544 4.80127 7.38878C4.80127 5.45815 6.26439 3.86878 8.14252 3.6694C8.17439 3.66878 8.20627 3.66815 8.23814 3.66815C9.66127 3.66815 10.9481 4.47628 11.5794 5.72753C11.6713 5.91003 11.6 6.1319 11.4194 6.2269C11.3338 6.19503 11.2588 6.13253 11.2144 6.0444C10.6169 4.85878 9.37689 4.2794 8.18627 4.41815C7.44752 4.4294 6.70502 4.7119 6.12314 5.29378C4.95502 6.4619 4.95502 8.35503 6.12314 9.52315C6.81689 10.2169 7.71877 10.4775 8.57127 10.3788C9.83814 10.36 11.065 9.54253 11.4325 8.1594L11.4338 8.16003Z" fill="white"/>
<path d="M9.13437 9.37306C10.2276 9.04555 10.8483 7.89381 10.5208 6.80058C10.1933 5.70735 9.04157 5.08662 7.94834 5.41413C6.85511 5.74164 6.23437 6.89338 6.56189 7.98661C6.8894 9.07984 8.04114 9.70057 9.13437 9.37306Z" fill="#DBDBDB"/>
<path fill-rule="evenodd" clip-rule="evenodd" d="M8.54251 5.32312H8.56313C9.57126 5.46 10.3488 6.32437 10.3488 7.37C10.3488 8.51125 9.42376 9.43624 8.28251 9.43624C8.27563 9.43624 8.26876 9.43624 8.26188 9.43624C7.25376 9.29937 6.47626 8.435 6.47626 7.38937C6.47626 6.24812 7.40126 5.32312 8.54251 5.32312Z" fill="white"/>
</svg>
