<svg width="32" height="32" viewBox="0 0 32 32" fill="none" xmlns="http://www.w3.org/2000/svg">
<g clip-path="url(#clip0_17_661)">
<path d="M28.6678 7.72419V29.1916C28.6678 30.7426 27.4103 32.0001 25.8593 32.0001H6.23196C4.68098 32.0001 3.42346 30.7426 3.42346 29.1916V2.8085C3.42346 1.25751 4.68098 0 6.23196 0H21.1696L21.2399 0.0724065L21.1696 0.140425V6.31994C21.1696 7.09502 21.7977 7.72391 22.5731 7.72419H22.5739H28.5274L28.5995 7.65397L28.6678 7.72419Z" fill="#FEDB41"/>
<path d="M28.5996 7.65395L28.5274 7.72417H22.5739C21.7988 7.72417 21.17 7.09582 21.1697 6.32074C21.1697 6.32047 21.1697 6.32019 21.1697 6.31992V0.140406L21.2399 0.0723877L28.5996 7.65395Z" fill="#00EFD1"/>
<path d="M17.9781 17.6274V18.5158H8.25063V17.6274C8.24405 15.3398 10.0934 13.4797 12.3814 13.4731H12.4058H13.8226C16.1111 13.4665 17.9715 15.3162 17.9781 17.6044V17.6274Z" fill="#00ACEA"/>
<path d="M15.102 6.99958C16.1985 8.09199 16.2018 9.86677 15.1092 10.9633C14.0167 12.0598 12.242 12.0631 11.1454 10.9704C10.0489 9.87801 10.0456 8.10323 11.1383 7.00671C11.6641 6.47902 12.3783 6.18226 13.1235 6.18226C13.8654 6.18007 14.5776 6.47436 15.102 6.99958Z" fill="#00ACEA"/>
<path d="M23.911 27.5084H7.7479C7.36009 27.5084 7.04578 27.1941 7.04578 26.8063C7.04578 26.4185 7.36009 26.1042 7.7479 26.1042H23.911C24.2985 26.1042 24.6131 26.4185 24.6131 26.8063C24.6131 27.1941 24.2985 27.5084 23.911 27.5084Z" fill="#00EFD1"/>
<path d="M17.4246 23.7233H7.7479C7.36009 23.7233 7.04578 23.409 7.04578 23.0212C7.04578 22.6333 7.36009 22.319 7.7479 22.319H17.4246C17.8124 22.319 18.1267 22.6333 18.1267 23.0212C18.1267 23.409 17.8124 23.7233 17.4246 23.7233Z" fill="#00EFD1"/>
</g>
<defs>
<clipPath id="clip0_17_661">
<rect width="32" height="32" fill="white"/>
</clipPath>
</defs>
</svg>
