<svg width="32" height="32" viewBox="0 0 32 32" fill="none" xmlns="http://www.w3.org/2000/svg">
<path d="M6.03419 7H2.96581C2.43237 7 2 7.43238 2 7.96581V10H7V7.96581C7 7.43238 6.56763 7 6.03419 7Z" fill="#B4D2E2"/>
<path d="M16 15L0 16V26.7465C0 27.9882 1.00619 29 2.2535 29H29.7464C30.9932 29 32 27.9889 32 26.7465V16L16 15Z" fill="#017297"/>
<path d="M16 28.2878C20.6944 28.2878 24.5 24.4822 24.5 19.7878C24.5 15.0933 20.6944 11.2878 16 11.2878C11.3056 11.2878 7.5 15.0933 7.5 19.7878C7.5 24.4822 11.3056 28.2878 16 28.2878Z" fill="#025F80"/>
<path d="M29.4245 15.8391V21.2737C29.4245 24.8296 26.5419 27.7123 22.9859 27.7123H0.217041C0.578291 28.4727 1.35304 29 2.25348 29H29.7464C30.9932 29 32 27.9889 32 26.7465V16L29.4245 15.8391Z" fill="#025F80"/>
<path d="M32 11.2535C32 10.0089 30.9911 9 29.7465 9H26.1931C26.0747 9 25.9666 8.93312 25.9136 8.82725L23.6229 4.24569C23.2411 3.48225 22.4608 3 21.6073 3H10.3927C9.53919 3 8.75887 3.48225 8.37712 4.24575L6.08638 8.82731C6.03344 8.93313 5.92525 9 5.80688 9H2.2535C1.00894 9 0 10.0089 0 11.2535V16H32V11.2535Z" fill="#01C0FA"/>
<path d="M29.7465 9H29.2076C29.3467 9.29275 29.4246 9.62019 29.4246 9.96581V16H32V11.2535C32 10.0089 30.991 9 29.7465 9Z" fill="#08A9F1"/>
<path d="M16 27C20.6944 27 24.5 23.1944 24.5 18.5C24.5 13.8056 20.6944 10 16 10C11.3056 10 7.5 13.8056 7.5 18.5C7.5 23.1944 11.3056 27 16 27Z" fill="#B4D2E2"/>
<path d="M16 25C19.5899 25 22.5 22.0899 22.5 18.5C22.5 14.9101 19.5899 12 16 12C12.4101 12 9.5 14.9101 9.5 18.5C9.5 22.0899 12.4101 25 16 25Z" fill="#017297"/>
<path d="M17.5446 12.1846C18.9975 13.3767 19.9245 15.1862 19.9245 17.2123C19.9245 20.8021 17.0144 23.7123 13.4245 23.7123C12.8923 23.7123 12.3749 23.6483 11.8799 23.5276C13.0013 24.4478 14.4361 25 15.9999 25C19.5898 25 22.4999 22.0899 22.4999 18.5C22.4999 15.4424 20.3888 12.8779 17.5446 12.1846Z" fill="#025F80"/>
<path d="M16 20C16.8284 20 17.5 19.3284 17.5 18.5C17.5 17.6716 16.8284 17 16 17C15.1716 17 14.5 17.6716 14.5 18.5C14.5 19.3284 15.1716 20 16 20Z" fill="#024C67"/>
<path d="M18.8285 18.1716C20.2092 18.1716 21.3285 17.0523 21.3285 15.6716C21.3285 14.2909 20.2092 13.1716 18.8285 13.1716C17.4478 13.1716 16.3285 14.2909 16.3285 15.6716C16.3285 17.0523 17.4478 18.1716 18.8285 18.1716Z" fill="white"/>
<path d="M21.3285 15.6716C21.3285 14.9822 21.0494 14.3579 20.5981 13.9057C20.5965 13.9041 20.595 13.9026 20.5934 13.901C20.1412 13.4503 19.5174 13.1716 18.8285 13.1716C18.7275 13.1716 18.6281 13.1776 18.5303 13.1892C19.4035 14.2958 19.9246 15.6932 19.9246 17.2123C19.9246 17.4577 19.911 17.6999 19.8845 17.9383C20.7374 17.5402 21.3285 16.6749 21.3285 15.6716Z" fill="#F2FBFF"/>
<path d="M29.6875 14H26.3125C26.1399 14 26 13.8601 26 13.6875V11.3125C26 11.1399 26.1399 11 26.3125 11H29.6875C29.8601 11 30 11.1399 30 11.3125V13.6875C30 13.8601 29.8601 14 29.6875 14Z" fill="white"/>
<path d="M30 13.6875V11.3125C30 11.1399 29.8601 11 29.6875 11H29.4246V14H29.6875C29.8601 14 30 13.8601 30 13.6875Z" fill="#F2FBFF"/>
<path d="M4 25C4.82843 25 5.5 24.3284 5.5 23.5C5.5 22.6716 4.82843 22 4 22C3.17157 22 2.5 22.6716 2.5 23.5C2.5 24.3284 3.17157 25 4 25Z" fill="#FD4755"/>
<path d="M16 23.4688C13.2603 23.4688 11.0312 21.2398 11.0312 18.5C11.0312 16.3636 12.3908 14.4708 14.4143 13.7898C14.6596 13.7074 14.9255 13.8392 15.0081 14.0845C15.0906 14.3299 14.9586 14.5957 14.7133 14.6783C13.0717 15.2308 11.9688 16.7666 11.9688 18.5C11.9688 20.7228 13.7772 22.5313 16 22.5313C17.7334 22.5313 19.2692 21.4283 19.8217 19.7866C19.9043 19.5413 20.1701 19.4092 20.4154 19.4919C20.6608 19.5744 20.7928 19.8403 20.7102 20.0856C20.0293 22.1092 18.1364 23.4688 16 23.4688Z" fill="#025F80"/>
<path d="M20.4154 19.4919C20.1701 19.4093 19.9042 19.5413 19.8216 19.7866C19.4465 20.9014 18.6179 21.7678 17.5819 22.2091C16.9303 22.7518 16.171 23.1694 15.3407 23.4252C15.5564 23.4539 15.7765 23.4688 15.9999 23.4688C18.1363 23.4688 20.0292 22.1092 20.7102 20.0857C20.7928 19.8403 20.6608 19.5744 20.4154 19.4919Z" fill="#024C67"/>
<path d="M21 8.46875H11C10.7411 8.46875 10.5312 8.25888 10.5312 8C10.5312 7.74112 10.7411 7.53125 11 7.53125H21C21.2589 7.53125 21.4688 7.74112 21.4688 8C21.4688 8.25888 21.2589 8.46875 21 8.46875Z" fill="#08A9F1"/>
</svg>
